<svg width="32" height="26" viewBox="0 0 32 26" fill="none" xmlns="http://www.w3.org/2000/svg">
<path d="M1.43773 12.1478C1.50778 12.1128 1.57786 12.0795 1.64616 12.0479C2.83349 11.4979 4.03658 10.9829 5.23793 10.4679C5.30272 10.4679 5.41127 10.3926 5.47256 10.368C5.56538 10.3277 5.65821 10.2892 5.75102 10.2489L6.28516 10.0194C6.64241 9.86703 6.99788 9.71463 7.35513 9.56222C8.06788 9.25742 8.78063 8.95262 9.49337 8.64606C10.9189 8.03646 12.3462 7.4251 13.7717 6.81549C15.1972 6.20589 16.6244 5.59453 18.0499 4.98492C19.4754 4.37531 20.9026 3.76396 22.3281 3.15435C23.7536 2.54474 25.1809 1.93338 26.6064 1.32378C26.9234 1.18714 27.2666 0.983939 27.6063 0.92438C27.8918 0.87358 28.1702 0.775483 28.4574 0.721179C29.0021 0.617826 29.6027 0.575784 30.1246 0.801759C30.305 0.880587 30.4713 0.990946 30.6097 1.12933C31.2717 1.78449 31.1788 2.86006 31.0387 3.78147C30.0633 10.2034 29.0879 16.627 28.1107 23.0489C27.9776 23.93 27.7955 24.897 27.1002 25.454C26.5118 25.9253 25.6747 25.9778 24.948 25.7781C24.2212 25.5767 23.5803 25.1545 22.9516 24.7393C20.344 23.0121 17.7347 21.2849 15.1271 19.5577C14.5072 19.1478 13.8172 18.6117 13.8242 17.8672C13.8277 17.4188 14.0956 17.0194 14.3688 16.6638C16.6349 13.7069 19.9044 11.6748 22.3369 8.85452C22.6801 8.45688 22.9498 7.73866 22.4788 7.50918C22.1986 7.37255 21.8763 7.55823 21.6206 7.73516C18.4054 9.96863 15.1919 12.2039 11.9766 14.4373C10.9277 15.1661 9.82789 15.9158 8.56351 16.0945C7.43221 16.2556 6.29392 15.9403 5.1994 15.618C4.28176 15.3482 3.36584 15.0715 2.45345 14.7859C1.96836 14.6353 1.46751 14.4724 1.09274 14.1308C0.71798 13.7892 0.502608 13.2146 0.728516 12.7592C0.870366 12.4736 1.14531 12.2932 1.43427 12.146L1.43773 12.1478Z" fill="#00B0F2"/>
</svg>
