<svg width="51" height="50" viewBox="0 0 51 50" fill="none" xmlns="http://www.w3.org/2000/svg">
<path d="M25.9061 0.5H26.0204C39.5156 0.500133 50.4559 11.4438 50.4559 24.9434V25.0566C50.4559 38.5562 39.5156 49.4999 26.0204 49.5H25.9061C12.4109 49.4999 1.47058 38.5563 1.47058 25.0566V24.9434C1.47058 11.4437 12.4109 0.500085 25.9061 0.5Z" stroke="#00B0F2"/>
<path d="M10.4377 24.1478C10.5078 24.1128 10.5779 24.0795 10.6462 24.0479C11.8335 23.4979 13.0366 22.9829 14.2379 22.4679C14.3027 22.4679 14.4113 22.3926 14.4726 22.368C14.5654 22.3277 14.6582 22.2892 14.751 22.2489L15.2852 22.0194C15.6424 21.867 15.9979 21.7146 16.3551 21.5622C17.0679 21.2574 17.7806 20.9526 18.4934 20.6461C19.9189 20.0365 21.3462 19.4251 22.7717 18.8155C24.1972 18.2059 25.6244 17.5945 27.0499 16.9849C28.4754 16.3753 29.9026 15.764 31.3281 15.1543C32.7536 14.5447 34.1809 13.9334 35.6064 13.3238C35.9234 13.1871 36.2666 12.9839 36.6063 12.9244C36.8918 12.8736 37.1702 12.7755 37.4574 12.7212C38.0021 12.6178 38.6027 12.5758 39.1246 12.8018C39.305 12.8806 39.4713 12.9909 39.6097 13.1293C40.2717 13.7845 40.1788 14.8601 40.0387 15.7815C39.0633 22.2034 38.0879 28.627 37.1107 35.0489C36.9776 35.93 36.7955 36.897 36.1002 37.454C35.5118 37.9253 34.6747 37.9778 33.948 37.7781C33.2212 37.5767 32.5803 37.1545 31.9516 36.7393C29.344 35.0121 26.7347 33.2849 24.1271 31.5577C23.5072 31.1478 22.8172 30.6117 22.8242 29.8672C22.8277 29.4188 23.0956 29.0194 23.3688 28.6638C25.6349 25.7069 28.9044 23.6748 31.3369 20.8545C31.6801 20.4569 31.9498 19.7387 31.4788 19.5092C31.1986 19.3725 30.8763 19.5582 30.6206 19.7352C27.4054 21.9686 24.1919 24.2039 20.9766 26.4373C19.9277 27.1661 18.8279 27.9158 17.5635 28.0945C16.4322 28.2556 15.2939 27.9403 14.1994 27.618C13.2818 27.3482 12.3658 27.0715 11.4534 26.7859C10.9684 26.6353 10.4675 26.4724 10.0927 26.1308C9.71798 25.7892 9.50261 25.2146 9.72852 24.7592C9.87037 24.4736 10.1453 24.2932 10.4343 24.146L10.4377 24.1478Z" fill="#00B0F2"/>
</svg>
