<svg width="50" height="50" viewBox="0 0 50 50" fill="none" xmlns="http://www.w3.org/2000/svg">
<path d="M25 42.5024C25.6124 42.5024 26.2035 42.7273 26.6611 43.1342C27.1188 43.5411 27.4111 44.1018 27.4828 44.71L27.5003 45.0025V47.5026C27.4996 48.1399 27.2556 48.7528 26.8181 49.2161C26.3806 49.6795 25.7827 49.9584 25.1466 49.9957C24.5104 50.033 23.884 49.8261 23.3953 49.4171C22.9066 49.0081 22.5925 48.4279 22.5172 47.7951L22.4997 47.5026V45.0025C22.4997 44.3394 22.7632 43.7035 23.2321 43.2346C23.701 42.7658 24.3369 42.5024 25 42.5024Z" fill="#FFBD4C"/>
<path d="M40.7843 37.2771L41.0193 37.4846L42.7695 39.2347C43.2179 39.6846 43.4783 40.2883 43.4977 40.9232C43.517 41.5581 43.294 42.1766 42.8739 42.6531C42.4538 43.1295 41.868 43.4282 41.2356 43.4884C40.6033 43.5487 39.9717 43.3659 39.4691 42.9774L39.2341 42.7699L37.4839 41.0198C37.0525 40.5891 36.7932 40.0156 36.755 39.4072C36.7167 38.7988 36.9021 38.1974 37.2763 37.7161C37.6504 37.2347 38.1875 36.9067 38.7866 36.7936C39.3857 36.6806 40.0054 36.7902 40.5293 37.1021L40.7843 37.2771Z" fill="#FFBD4C"/>
<path d="M12.5162 37.4845C12.9467 37.915 13.2053 38.4878 13.2435 39.0954C13.2817 39.703 13.0969 40.3037 12.7237 40.7847L12.5162 41.0197L10.766 42.7698C10.316 43.2182 9.71227 43.4785 9.07733 43.4979C8.44239 43.5173 7.82387 43.2943 7.3474 42.8742C6.87094 42.4541 6.57225 41.8684 6.51201 41.236C6.45177 40.6037 6.63449 39.9721 7.02306 39.4696L7.23059 39.2346L8.98078 37.4845C9.44965 37.0158 10.0855 36.7525 10.7485 36.7525C11.4115 36.7525 12.0473 37.0158 12.5162 37.4845Z" fill="#FFBD4C"/>
<path d="M4.99778 22.5012C5.63505 22.502 6.248 22.746 6.7114 23.1834C7.17479 23.6209 7.45364 24.2187 7.49099 24.8549C7.52834 25.491 7.32135 26.1174 6.91233 26.6061C6.50331 27.0947 5.92313 27.4088 5.29032 27.484L4.99778 27.5015H2.49751C1.86024 27.5008 1.24729 27.2568 0.783897 26.8194C0.320505 26.3819 0.0416475 25.784 0.00430056 25.1479C-0.0330464 24.5118 0.173936 23.8854 0.582957 23.3967C0.991978 22.9081 1.57216 22.594 2.20497 22.5187L2.49751 22.5012H4.99778Z" fill="#FFBD4C"/>
<path d="M47.5025 22.5012C48.1398 22.502 48.7527 22.746 49.2161 23.1834C49.6795 23.6209 49.9584 24.2187 49.9957 24.8549C50.033 25.491 49.8261 26.1174 49.417 26.6061C49.008 27.0947 48.4278 27.4088 47.795 27.484L47.5025 27.5015H45.0022C44.3649 27.5008 43.752 27.2568 43.2886 26.8194C42.8252 26.3819 42.5464 25.784 42.509 25.1479C42.4717 24.5118 42.6786 23.8854 43.0877 23.3967C43.4967 22.9081 44.0769 22.594 44.7097 22.5187L45.0022 22.5012H47.5025Z" fill="#FFBD4C"/>
<path d="M10.5309 7.02532L10.766 7.23284L12.5162 8.98293C12.9646 9.43285 13.2249 10.0366 13.2443 10.6715C13.2637 11.3064 13.0407 11.9249 12.6205 12.4013C12.2004 12.8778 11.6147 13.1764 10.9823 13.2367C10.3499 13.2969 9.71832 13.1142 9.21579 12.7256L8.98076 12.5181L7.23057 10.768C6.80074 10.3372 6.54282 9.76441 6.50515 9.15702C6.46748 8.54964 6.65265 7.94936 7.02595 7.46874C7.39925 6.98811 7.93504 6.66013 8.53288 6.54628C9.13072 6.43243 9.74957 6.54053 10.2734 6.85031L10.5309 7.02532Z" fill="#FFBD4C"/>
<path d="M42.7695 7.23292C43.2 7.66342 43.4586 8.2362 43.4968 8.8438C43.535 9.4514 43.3502 10.0521 42.977 10.5331L42.7695 10.7681L41.0193 12.5182C40.5693 12.9666 39.9656 13.2269 39.3306 13.2463C38.6957 13.2657 38.0772 13.0427 37.6007 12.6226C37.1242 12.2025 36.8255 11.6168 36.7653 10.9844C36.7051 10.3521 36.8878 9.72053 37.2764 9.21803L37.4839 8.98301L39.2341 7.23292C39.7029 6.76421 40.3388 6.50091 41.0018 6.50091C41.6648 6.50091 42.3006 6.76421 42.7695 7.23292Z" fill="#FFBD4C"/>
<path d="M25 0C25.6124 8.07809e-05 26.2035 0.224903 26.6611 0.631823C27.1188 1.03874 27.4111 1.59946 27.4828 2.20762L27.5003 2.50014V5.00028C27.4996 5.63751 27.2556 6.25043 26.8181 6.71379C26.3806 7.17716 25.7827 7.456 25.1466 7.49334C24.5104 7.53069 23.884 7.32372 23.3953 6.91472C22.9066 6.50572 22.5925 5.92557 22.5172 5.29279L22.4997 5.00028V2.50014C22.4997 1.83706 22.7632 1.20114 23.2321 0.732274C23.701 0.263407 24.3369 0 25 0Z" fill="#FFBD4C"/>
<path d="M25 12.5007C27.4495 12.5006 29.845 13.22 31.8891 14.5696C33.9332 15.9192 35.5357 17.8395 36.4977 20.092C37.4597 22.3446 37.7387 24.83 37.3001 27.2398C36.8615 29.6495 35.7246 31.8773 34.0306 33.6465C32.3366 35.4157 30.1602 36.6483 27.7717 37.1911C25.3831 37.734 22.8877 37.5633 20.5954 36.7002C18.303 35.8371 16.3148 34.3196 14.8775 32.3362C13.4403 30.3528 12.6174 27.9909 12.5111 25.5439L12.4986 25.0014L12.5111 24.4589C12.651 21.2406 14.0278 18.2005 16.3546 15.9725C18.6814 13.7446 21.7785 12.5009 25 12.5007Z" fill="#FFBD4C"/>
<path d="M25 42.5024C25.6124 42.5024 26.2035 42.7273 26.6611 43.1342C27.1188 43.5411 27.4111 44.1018 27.4828 44.71L27.5003 45.0025V47.5026C27.4996 48.1399 27.2556 48.7528 26.8181 49.2161C26.3806 49.6795 25.7827 49.9584 25.1466 49.9957C24.5104 50.033 23.884 49.8261 23.3953 49.4171C22.9066 49.0081 22.5925 48.4279 22.5172 47.7951L22.4997 47.5026V45.0025C22.4997 44.3394 22.7632 43.7035 23.2321 43.2346C23.701 42.7658 24.3369 42.5024 25 42.5024Z" stroke="black"/>
<path d="M40.7843 37.2771L41.0193 37.4846L42.7695 39.2347C43.2179 39.6846 43.4783 40.2883 43.4977 40.9232C43.517 41.5581 43.294 42.1766 42.8739 42.6531C42.4538 43.1295 41.868 43.4282 41.2356 43.4884C40.6033 43.5487 39.9717 43.3659 39.4691 42.9774L39.2341 42.7699L37.4839 41.0198C37.0525 40.5891 36.7932 40.0156 36.755 39.4072C36.7167 38.7988 36.9021 38.1974 37.2763 37.7161C37.6504 37.2347 38.1875 36.9067 38.7866 36.7936C39.3857 36.6806 40.0054 36.7902 40.5293 37.1021L40.7843 37.2771Z" stroke="black"/>
<path d="M12.5162 37.4845C12.9467 37.915 13.2053 38.4878 13.2435 39.0954C13.2817 39.703 13.0969 40.3037 12.7237 40.7847L12.5162 41.0197L10.766 42.7698C10.316 43.2182 9.71227 43.4785 9.07733 43.4979C8.44239 43.5173 7.82387 43.2943 7.3474 42.8742C6.87094 42.4541 6.57225 41.8684 6.51201 41.236C6.45177 40.6037 6.63449 39.9721 7.02306 39.4696L7.23059 39.2346L8.98078 37.4845C9.44965 37.0158 10.0855 36.7525 10.7485 36.7525C11.4115 36.7525 12.0473 37.0158 12.5162 37.4845Z" stroke="black"/>
<path d="M4.99778 22.5012C5.63505 22.502 6.248 22.746 6.7114 23.1834C7.17479 23.6209 7.45364 24.2187 7.49099 24.8549C7.52834 25.491 7.32135 26.1174 6.91233 26.6061C6.50331 27.0947 5.92313 27.4088 5.29032 27.484L4.99778 27.5015H2.49751C1.86024 27.5008 1.24729 27.2568 0.783897 26.8194C0.320505 26.3819 0.0416475 25.784 0.00430056 25.1479C-0.0330464 24.5118 0.173936 23.8854 0.582957 23.3967C0.991978 22.9081 1.57216 22.594 2.20497 22.5187L2.49751 22.5012H4.99778Z" stroke="black"/>
<path d="M47.5025 22.5012C48.1398 22.502 48.7527 22.746 49.2161 23.1834C49.6795 23.6209 49.9584 24.2187 49.9957 24.8549C50.033 25.491 49.8261 26.1174 49.417 26.6061C49.008 27.0947 48.4278 27.4088 47.795 27.484L47.5025 27.5015H45.0022C44.3649 27.5008 43.752 27.2568 43.2886 26.8194C42.8252 26.3819 42.5464 25.784 42.509 25.1479C42.4717 24.5118 42.6786 23.8854 43.0877 23.3967C43.4967 22.9081 44.0769 22.594 44.7097 22.5187L45.0022 22.5012H47.5025Z" stroke="black"/>
<path d="M10.5309 7.02532L10.766 7.23284L12.5162 8.98293C12.9646 9.43285 13.2249 10.0366 13.2443 10.6715C13.2637 11.3064 13.0407 11.9249 12.6205 12.4013C12.2004 12.8778 11.6147 13.1764 10.9823 13.2367C10.3499 13.2969 9.71832 13.1142 9.21579 12.7256L8.98076 12.5181L7.23057 10.768C6.80074 10.3372 6.54282 9.76441 6.50515 9.15702C6.46748 8.54964 6.65265 7.94936 7.02595 7.46874C7.39925 6.98811 7.93504 6.66013 8.53288 6.54628C9.13072 6.43243 9.74957 6.54053 10.2734 6.85031L10.5309 7.02532Z" stroke="black"/>
<path d="M42.7695 7.23292C43.2 7.66342 43.4586 8.2362 43.4968 8.8438C43.535 9.4514 43.3502 10.0521 42.977 10.5331L42.7695 10.7681L41.0193 12.5182C40.5693 12.9666 39.9656 13.2269 39.3306 13.2463C38.6957 13.2657 38.0772 13.0427 37.6007 12.6226C37.1242 12.2025 36.8255 11.6168 36.7653 10.9844C36.7051 10.3521 36.8878 9.72053 37.2764 9.21803L37.4839 8.98301L39.2341 7.23292C39.7029 6.76421 40.3388 6.50091 41.0018 6.50091C41.6648 6.50091 42.3006 6.76421 42.7695 7.23292Z" stroke="black"/>
<path d="M25 0C25.6124 8.07809e-05 26.2035 0.224903 26.6611 0.631823C27.1188 1.03874 27.4111 1.59946 27.4828 2.20762L27.5003 2.50014V5.00028C27.4996 5.63751 27.2556 6.25043 26.8181 6.71379C26.3806 7.17716 25.7827 7.456 25.1466 7.49334C24.5104 7.53069 23.884 7.32372 23.3953 6.91472C22.9066 6.50572 22.5925 5.92557 22.5172 5.29279L22.4997 5.00028V2.50014C22.4997 1.83706 22.7632 1.20114 23.2321 0.732274C23.701 0.263407 24.3369 0 25 0Z" stroke="black"/>
<path d="M25 12.5007C27.4495 12.5006 29.845 13.22 31.8891 14.5696C33.9332 15.9192 35.5357 17.8395 36.4977 20.092C37.4597 22.3446 37.7387 24.83 37.3001 27.2398C36.8615 29.6495 35.7246 31.8773 34.0306 33.6465C32.3366 35.4157 30.1602 36.6483 27.7717 37.1911C25.3831 37.734 22.8877 37.5633 20.5954 36.7002C18.303 35.8371 16.3148 34.3196 14.8775 32.3362C13.4403 30.3528 12.6174 27.9909 12.5111 25.5439L12.4986 25.0014L12.5111 24.4589C12.651 21.2406 14.0278 18.2005 16.3546 15.9725C18.6814 13.7446 21.7785 12.5009 25 12.5007Z" stroke="black"/>
</svg>
