<svg width="50" height="50" viewBox="0 0 50 50" fill="none" xmlns="http://www.w3.org/2000/svg">
<path d="M37.5005 3.34973C41.2712 5.52687 44.4079 8.65104 46.6001 12.413C48.7923 16.1749 49.964 20.4442 49.9992 24.7981C50.0344 29.152 48.9318 33.4396 46.8006 37.2365C44.6695 41.0333 41.5836 44.2078 37.8486 46.4455C34.1135 48.6833 29.8588 49.9068 25.5056 49.9949C21.1523 50.083 16.8516 49.0326 13.029 46.9478C9.20651 44.863 5.99475 41.816 3.71171 38.1085C1.42867 34.401 0.153525 30.1615 0.0125004 25.8097L0 24.9997L0.0125004 24.1897C0.15251 19.8722 1.40889 15.6646 3.65914 11.9772C5.9094 8.28979 9.07675 5.24836 12.8524 3.14944C16.628 1.05051 20.8831 -0.034277 25.2028 0.000825614C29.5225 0.0359282 33.7594 1.18973 37.5005 3.34973ZM34.2679 18.2322C33.8374 17.8018 33.2647 17.5432 32.6571 17.505C32.0495 17.4668 31.4489 17.6516 30.9679 18.0247L30.7329 18.2322L22.5003 26.4622L19.2677 23.2322L19.0327 23.0247C18.5517 22.6519 17.9511 22.4673 17.3437 22.5056C16.7363 22.5439 16.1637 22.8025 15.7333 23.2329C15.303 23.6632 15.0444 24.2358 15.0061 24.8432C14.9677 25.4507 15.1523 26.0512 15.5252 26.5322L15.7327 26.7672L20.7328 31.7672L20.9678 31.9747C21.4062 32.3149 21.9454 32.4995 22.5003 32.4995C23.0552 32.4995 23.5944 32.3149 24.0328 31.9747L24.2678 31.7672L34.2679 21.7672L34.4754 21.5322C34.8486 21.0512 35.0334 20.4506 34.9952 19.843C34.9569 19.2355 34.6984 18.6627 34.2679 18.2322Z" fill="#2B8EFF"/>
<path d="M34.2679 18.2322C33.8374 17.8018 33.2647 17.5432 32.6571 17.505C32.0495 17.4668 31.4489 17.6516 30.9679 18.0247L30.7329 18.2322L22.5003 26.4622L19.2677 23.2322L19.0327 23.0247C18.5517 22.6519 17.9511 22.4673 17.3437 22.5056C16.7363 22.5439 16.1637 22.8025 15.7333 23.2329C15.303 23.6632 15.0444 24.2358 15.0061 24.8432C14.9677 25.4507 15.1523 26.0512 15.5252 26.5322L15.7327 26.7672L20.7328 31.7672L20.9678 31.9747C21.4062 32.3149 21.9454 32.4995 22.5003 32.4995C23.0552 32.4995 23.5944 32.3149 24.0328 31.9747L24.2678 31.7672L34.2679 21.7672L34.4754 21.5322C34.8486 21.0512 35.0334 20.4506 34.9952 19.843C34.9569 19.2355 34.6984 18.6627 34.2679 18.2322Z" fill="white"/>
</svg>
