<svg width="50" height="50" viewBox="0 0 50 50" fill="none" xmlns="http://www.w3.org/2000/svg">
<path d="M24.9355 0.5H25.0498C38.545 0.500132 49.4854 11.4438 49.4854 24.9434V25.0566C49.4854 38.5562 38.545 49.4999 25.0498 49.5H24.9355C11.4403 49.4999 0.5 38.5563 0.5 25.0566V24.9434C0.5 11.4437 11.4403 0.500097 24.9355 0.5Z" stroke="#0078FF"/>
<path d="M36.5232 27.7725C34.933 26.1057 33.2575 25.1668 32.1344 24.6501C33.1856 24.0481 35.0093 22.8172 36.5681 20.6248C38.1403 18.4099 38.6973 16.2579 38.9219 15.0629H33.8998C33.6078 16.0468 33.0239 17.5428 31.82 19.0434C30.0007 21.3076 27.7862 22.296 26.7036 22.6914L26.6811 15.0539L21.9959 15.0674L22.0319 28.5228C20.7741 28.087 19.4579 27.3772 18.3215 26.2181C16.866 24.74 16.2641 23.0598 15.7296 21.5772C14.9884 19.5151 14.638 17.3407 14.6919 15.1168L10.0067 15C9.93933 17.8079 10.3795 20.5529 11.3184 23.1631C11.9428 24.9017 12.8008 27.2873 14.9749 29.4977C17.9262 32.5032 21.5782 33.4736 24.1207 33.7567L26.7305 34.0487L26.7126 27.3637C27.584 27.4445 29.1742 27.7231 30.7779 28.8058C33.4102 30.5804 34.2008 33.258 34.3939 34.0083H40C39.6496 32.6874 38.7737 30.1311 36.5187 27.768L36.5232 27.7725Z" fill="#0078FF"/>
</svg>
