<svg width="30" height="20" viewBox="0 0 30 20" fill="none" xmlns="http://www.w3.org/2000/svg">
<path d="M26.5232 12.7725C24.933 11.1057 23.2575 10.1668 22.1344 9.65014C23.1856 9.04813 25.0093 7.81715 26.5681 5.62476C28.1403 3.4099 28.6973 1.25794 28.9219 0.0629001H23.8998C23.6078 1.04678 23.0239 2.54282 21.82 4.04336C20.0007 6.30763 17.7862 7.29601 16.7036 7.69136L16.6811 0.053913L11.9959 0.0673971L12.0319 13.5228C10.7741 13.087 9.45794 12.3772 8.32146 11.2181C6.86604 9.74 6.26411 8.05975 5.72956 6.57719C4.98838 4.51508 4.638 2.34065 4.6919 0.116809L0.00671087 3.8147e-06C-0.0606696 2.80789 0.379549 5.55287 1.31838 8.16308C1.94278 9.90172 2.80075 12.2873 4.9749 14.4977C7.92616 17.5032 11.5782 18.4736 14.1207 18.7567L16.7305 19.0487L16.7126 12.3637C17.584 12.4445 19.1742 12.7231 20.7779 13.8058C23.4102 15.5804 24.2008 18.258 24.3939 19.0083H30C29.6496 17.6874 28.7737 15.1311 26.5187 12.768L26.5232 12.7725Z" fill="#0078FF"/>
</svg>
