<svg width="51" height="50" viewBox="0 0 51 50" fill="none" xmlns="http://www.w3.org/2000/svg">
<path d="M25.9208 0.5H26.035C39.5303 0.500132 50.4706 11.4438 50.4706 24.9434V25.0566C50.4706 38.5562 39.5303 49.4999 26.035 49.5H25.9208C12.4255 49.4999 1.48523 38.5563 1.48523 25.0566V24.9434C1.48523 11.4437 12.4255 0.500097 25.9208 0.5Z" stroke="#00E510"/>
<path d="M30.8489 32.3127C24.4516 32.3127 19.247 27.1047 19.2452 20.7056C19.247 19.0835 20.5674 17.7645 22.1856 17.7645C22.3519 17.7645 22.5165 17.7785 22.6741 17.8065C23.0209 17.8643 23.3501 17.9817 23.6531 18.1586C23.6969 18.1849 23.7266 18.2269 23.7336 18.276L24.4096 22.538C24.4184 22.5888 24.4026 22.6378 24.3693 22.6746C23.9963 23.088 23.52 23.3858 22.9894 23.5347L22.7337 23.6065L22.83 23.8535C23.7021 26.0747 25.4779 27.8492 27.7002 28.7251L27.9471 28.8232L28.0189 28.5675C28.1677 28.0367 28.4655 27.5602 28.8787 27.1871C28.9085 27.159 28.9488 27.145 28.9891 27.145C28.9978 27.145 29.0066 27.145 29.0171 27.1468L33.2778 27.823C33.3286 27.8317 33.3706 27.8597 33.3969 27.9035C33.572 28.2066 33.6894 28.5377 33.7489 28.8845C33.7769 29.0387 33.7892 29.2016 33.7892 29.3715C33.7892 30.9919 32.4705 32.3109 30.8489 32.3127Z" fill="#00E510"/>
<path d="M42.1934 23.596C41.8484 19.6966 40.0621 16.0793 37.1639 13.4114C34.2481 10.7277 30.4654 9.24921 26.5094 9.24921C17.8268 9.24921 10.7624 16.3157 10.7624 25.0009C10.7624 27.9158 11.5662 30.7554 13.088 33.2288L9.69409 40.7438L20.5605 39.5859C22.45 40.3602 24.4499 40.7526 26.5076 40.7526C27.0488 40.7526 27.6039 40.7245 28.1608 40.6667C28.6511 40.6142 29.1467 40.5371 29.6336 40.439C36.9047 38.9693 42.2126 32.5141 42.2547 25.085V25.0009C42.2547 24.5279 42.2337 24.0549 42.1916 23.596H42.1934ZM20.979 36.2874L14.9671 36.9285L16.7621 32.9503L16.4031 32.4686C16.3768 32.4335 16.3505 32.3985 16.3208 32.3582C14.7622 30.2053 13.9391 27.6618 13.9391 25.0026C13.9391 18.0692 19.578 12.4286 26.5094 12.4286C33.0029 12.4286 38.507 17.4964 39.0377 23.9656C39.0657 24.3125 39.0814 24.661 39.0814 25.0044C39.0814 25.1025 39.0797 25.1988 39.0779 25.3022C38.9448 31.1022 34.8943 36.0281 29.2273 37.2824C28.7947 37.3787 28.3517 37.4523 27.9104 37.4996C27.4515 37.5521 26.9805 37.5784 26.5129 37.5784C24.8475 37.5784 23.2293 37.2561 21.7005 36.6184C21.5306 36.5501 21.3643 36.4766 21.2084 36.4012L20.9808 36.2909L20.979 36.2874Z" fill="#00E510"/>
</svg>
