<svg width="34" height="32" viewBox="0 0 34 32" fill="none" xmlns="http://www.w3.org/2000/svg">
<path d="M21.8489 23.3127C15.4516 23.3127 10.247 18.1047 10.2452 11.7056C10.247 10.0835 11.5674 8.76445 13.1856 8.76445C13.3519 8.76445 13.5165 8.77847 13.6741 8.8065C14.0209 8.8643 14.3501 8.98167 14.6531 9.1586C14.6969 9.18487 14.7266 9.22691 14.7336 9.27596L15.4096 13.538C15.4184 13.5888 15.4026 13.6378 15.3693 13.6746C14.9963 14.088 14.52 14.3858 13.9894 14.5347L13.7337 14.6065L13.83 14.8535C14.7021 17.0747 16.4779 18.8492 18.7002 19.7251L18.9471 19.8232L19.0189 19.5675C19.1677 19.0367 19.4655 18.5602 19.8787 18.1871C19.9085 18.159 19.9488 18.145 19.9891 18.145C19.9978 18.145 20.0066 18.145 20.0171 18.1468L24.2778 18.823C24.3286 18.8317 24.3706 18.8597 24.3969 18.9035C24.572 19.2066 24.6894 19.5377 24.7489 19.8845C24.7769 20.0387 24.7892 20.2016 24.7892 20.3715C24.7892 21.9919 23.4705 23.3109 21.8489 23.3127Z" fill="#00E510"/>
<path d="M33.1934 14.596C32.8484 10.6966 31.0621 7.07926 28.1639 4.41136C25.2481 1.72768 21.4654 0.249214 17.5094 0.249214C8.82679 0.249214 1.76236 7.31575 1.76236 16.0009C1.76236 18.9158 2.56615 21.7554 4.08797 24.2288L0.694092 31.7438L11.5605 30.5859C13.45 31.3602 15.4499 31.7526 17.5076 31.7526C18.0488 31.7526 18.6039 31.7245 19.1608 31.6667C19.6511 31.6142 20.1467 31.5371 20.6336 31.439C27.9047 29.9693 33.2126 23.5141 33.2547 16.085V16.0009C33.2547 15.5279 33.2337 15.0549 33.1916 14.596H33.1934ZM11.979 27.2874L5.96706 27.9285L7.76206 23.9503L7.40305 23.4686C7.37679 23.4335 7.35052 23.3985 7.32075 23.3582C5.76216 21.2053 4.93906 18.6618 4.93906 16.0026C4.93906 9.06924 10.578 3.42863 17.5094 3.42863C24.0029 3.42863 29.507 8.49642 30.0377 14.9656C30.0657 15.3125 30.0814 15.661 30.0814 16.0044C30.0814 16.1025 30.0797 16.1988 30.0779 16.3022C29.9448 22.1022 25.8943 27.0281 20.2273 28.2824C19.7947 28.3787 19.3517 28.4523 18.9104 28.4996C18.4515 28.5521 17.9805 28.5784 17.5129 28.5784C15.8475 28.5784 14.2293 28.2561 12.7005 27.6184C12.5306 27.5501 12.3643 27.4766 12.2084 27.4012L11.9808 27.2909L11.979 27.2874Z" fill="#00E510"/>
</svg>
