<svg width="71" height="70" viewBox="0 0 71 70" fill="none" xmlns="http://www.w3.org/2000/svg">
<path d="M0.896973 35C0.896973 15.67 16.567 0 35.897 0C55.2269 0 70.897 15.67 70.897 35C70.897 54.33 55.2269 70 35.897 70C16.567 70 0.896973 54.33 0.896973 35Z" fill="#F68634"/>
<path d="M39.6828 42.9336L44.9133 47.9831C45.9848 49.0153 45.9848 50.6916 44.9133 51.7249C43.8429 52.7581 42.108 52.7581 41.0387 51.7249L35.896 46.7629L30.7578 51.7249C30.2221 52.241 29.52 52.4993 28.818 52.4993C28.1171 52.4993 27.4162 52.241 26.8804 51.7249C25.81 50.6916 25.81 49.0164 26.8793 47.9831L32.1104 42.9336C30.2058 42.5148 28.369 41.7863 26.6772 40.7617C25.3968 39.9824 25.0122 38.3499 25.8189 37.1129C26.6234 35.8743 28.3153 35.5014 29.5978 36.2807C33.4283 38.6066 38.3627 38.6071 42.1953 36.2807C43.4779 35.5014 45.1692 35.8743 45.9753 37.1129C46.782 38.3488 46.3963 39.9824 45.116 40.7617C43.4241 41.7874 41.5873 42.5148 39.6828 42.9336Z" fill="white"/>
<path d="M35.8731 17.5C41.0342 17.5 45.2295 21.5514 45.2296 26.5322C45.2296 31.5115 41.0342 35.5615 35.8731 35.5615C30.7131 35.5615 26.5167 31.5115 26.5167 26.5322C26.5167 21.5514 30.7132 17.5001 35.8731 17.5ZM35.8731 22.793C33.7385 22.793 31.9991 24.4701 31.9991 26.5322C31.9991 28.5928 33.7385 30.2705 35.8731 30.2705C38.0094 30.2705 39.7471 28.5928 39.7471 26.5322C39.7471 24.4701 38.0094 22.793 35.8731 22.793Z" fill="white"/>
</svg>
