<svg width="71" height="70" viewBox="0 0 71 70" fill="none" xmlns="http://www.w3.org/2000/svg">
<path d="M36.0076 0H35.8482C16.568 0 0.938232 15.6344 0.938232 34.9203V35.0797C0.938232 54.3656 16.568 70 35.8482 70H36.0076C55.2879 70 70.9176 54.3656 70.9176 35.0797V34.9203C70.9176 15.6344 55.2879 0 36.0076 0Z" fill="#FF0000"/>
<path fill-rule="evenodd" clip-rule="evenodd" d="M32.7346 44.5708C32.6929 44.7155 32.6537 44.8381 32.6218 44.9607C30.7708 52.215 30.5648 53.8263 28.6623 57.1959C27.7552 58.7974 26.7328 60.3154 25.6026 61.7673C25.4751 61.9316 25.3549 62.1425 25.0999 62.091C24.8204 62.0322 24.7984 61.7795 24.769 61.5564C24.465 59.3516 24.2958 57.142 24.3693 54.9152C24.4649 52.0164 24.8229 51.0207 28.5593 35.3055C28.6133 35.0651 28.552 34.8665 28.4735 34.6507C27.5786 32.2375 27.4021 29.7875 28.1842 27.3056C29.8759 21.9446 35.9513 21.535 37.0128 25.9568C37.6675 28.6912 35.9365 32.2718 34.6077 37.5642C33.5069 41.9295 38.6457 45.0343 43.0367 41.8461C47.087 38.9081 48.6585 31.8647 48.3594 26.8715C47.771 16.9171 36.8584 14.7663 29.9372 17.9716C22.001 21.6429 20.1965 31.4821 23.7809 35.9799C24.2345 36.5513 25.0901 36.902 24.9406 37.4808C24.7101 38.3808 24.5066 39.2882 24.2565 40.1834C24.0702 40.8504 23.0086 41.0932 22.3344 40.8185C21.0129 40.2839 19.9121 39.4427 19.0197 38.3342C15.9771 34.5648 15.1067 27.1094 19.13 20.7968C23.5872 13.8049 31.8789 10.9748 39.4499 11.8332C48.4918 12.8607 54.2067 19.0409 55.2757 26.0524C55.7636 29.2455 55.413 37.1203 50.9313 42.6873C45.7753 49.0833 37.4174 49.5075 33.5608 45.5812C33.2642 45.2795 33.0263 44.9288 32.7346 44.5683V44.5708Z" fill="white"/>
</svg>
