<svg width="71" height="70" viewBox="0 0 71 70" fill="none" xmlns="http://www.w3.org/2000/svg">
<path d="M35.9869 0H35.8275C16.5472 0 0.91748 15.6343 0.91748 34.9203V35.0797C0.91748 54.3657 16.5472 70 35.8275 70H35.9869C55.2671 70 70.8969 54.3657 70.8969 35.0797V34.9203C70.8969 15.6343 55.2671 0 35.9869 0Z" fill="#00B0F2"/>
<path d="M14.1715 33.8072C14.2696 33.7582 14.3677 33.7116 14.4633 33.6674C16.1256 32.8974 17.8099 32.1764 19.4918 31.4553C19.5825 31.4553 19.7344 31.3499 19.8203 31.3155C19.9502 31.2591 20.0802 31.2052 20.2101 31.1488L20.9579 30.8275C21.458 30.6142 21.9557 30.4008 22.4559 30.1874C23.4537 29.7607 24.4515 29.334 25.4494 28.9048C27.4451 28.0514 29.4433 27.1954 31.439 26.342C33.4347 25.4886 35.4328 24.6326 37.4285 23.7792C39.4242 22.9258 41.4223 22.0698 43.418 21.2164C45.4137 20.363 47.4119 19.507 49.4076 18.6536C49.8514 18.4623 50.3319 18.1778 50.8076 18.0944C51.2072 18.0233 51.597 17.886 51.9991 17.81C52.7615 17.6653 53.6025 17.6064 54.3331 17.9228C54.5856 18.0331 54.8185 18.1876 55.0122 18.3814C55.939 19.2986 55.809 20.8044 55.6129 22.0944C54.2473 31.085 52.8817 40.0781 51.5136 49.0688C51.3273 50.3023 51.0723 51.6561 50.099 52.436C49.2752 53.0957 48.1033 53.1692 47.0858 52.8897C46.0683 52.6076 45.171 52.0166 44.2909 51.4354C40.6403 49.0173 36.9872 46.5992 33.3366 44.181C32.4687 43.6072 31.5027 42.8567 31.5125 41.8144C31.5175 41.1866 31.8925 40.6275 32.275 40.1296C35.4475 35.9899 40.0249 33.1451 43.4303 29.1966C43.9109 28.6399 44.2884 27.6344 43.6289 27.3132C43.2366 27.1219 42.7855 27.3818 42.4275 27.6295C37.9262 30.7564 33.4273 33.8857 28.926 37.0126C27.4574 38.0328 25.9177 39.0824 24.1476 39.3326C22.5638 39.5582 20.9702 39.1168 19.4378 38.6655C18.1531 38.2878 16.8708 37.9004 15.5935 37.5006C14.9144 37.2897 14.2132 37.0616 13.6885 36.5834C13.1638 36.1052 12.8623 35.3008 13.1786 34.6631C13.3772 34.2634 13.7621 34.0108 14.1666 33.8048L14.1715 33.8072Z" fill="#FEFFFC"/>
</svg>
