<svg width="71" height="70" viewBox="0 0 71 70" fill="none" xmlns="http://www.w3.org/2000/svg">
<path d="M36.0488 0H35.8894C16.6091 0 0.97937 15.6343 0.97937 34.9203V35.0797C0.97937 54.3657 16.6091 70 35.8894 70H36.0488C55.329 70 70.9588 54.3657 70.9588 35.0797V34.9203C70.9588 15.6343 55.329 0 36.0488 0Z" fill="#0078FF"/>
<path d="M52.1118 38.8815C49.8855 36.548 47.5398 35.2335 45.9676 34.5102C47.4392 33.6674 49.9924 31.944 52.1747 28.8747C54.3757 25.7739 55.1556 22.7611 55.47 21.0881H48.4391C48.0303 22.4655 47.2128 24.5599 45.5274 26.6607C42.9804 29.8307 39.88 31.2144 38.3644 31.7679L38.3329 21.0755L31.7737 21.0944L31.824 39.9319C30.0631 39.3218 28.2205 38.328 26.6294 36.7053C24.5918 34.636 23.7491 32.2836 23.0007 30.2081C21.9631 27.3211 21.4725 24.2769 21.548 21.1635L14.9887 21C14.8944 24.931 15.5107 28.774 16.8251 32.4283C17.6992 34.8624 18.9004 38.2022 21.9442 41.2967C26.076 45.5045 31.1888 46.8631 34.7483 47.2593L38.4021 47.6682L38.3769 38.3091C39.597 38.4224 41.8232 38.8123 44.0683 40.3281C47.7536 42.8125 48.8604 46.5612 49.1309 47.6116H56.9793C56.4888 45.7624 55.2625 42.1836 52.1055 38.8752L52.1118 38.8815Z" fill="white"/>
</svg>
