<svg width="71" height="70" viewBox="0 0 71 70" fill="none" xmlns="http://www.w3.org/2000/svg">
<path d="M36.0281 0H35.8688C16.5885 0 0.95874 15.6343 0.95874 34.9203V35.0797C0.95874 54.3657 16.5885 70 35.8688 70H36.0281C55.3084 70 70.9381 54.3657 70.9381 35.0797V34.9203C70.9381 15.6343 55.3084 0 36.0281 0Z" fill="#00E510"/>
<path d="M42.7679 45.2371C33.8118 45.2371 26.5253 37.946 26.5229 28.9873C26.5253 26.7163 28.3739 24.8696 30.6393 24.8696C30.8722 24.8696 31.1027 24.8892 31.3233 24.9285C31.8088 25.0094 32.2697 25.1737 32.6938 25.4214C32.7551 25.4582 32.7968 25.5171 32.8066 25.5857L33.753 31.5525C33.7652 31.6236 33.7432 31.6923 33.6966 31.7438C33.1744 32.3226 32.5075 32.7395 31.7646 32.948L31.4067 33.0485L31.5415 33.3943C32.7625 36.504 35.2485 38.9883 38.3598 40.2145L38.7055 40.3519L38.806 39.9938C39.0144 39.2507 39.4312 38.5837 40.0098 38.0613C40.0514 38.0221 40.1078 38.0024 40.1642 38.0024C40.1765 38.0024 40.1887 38.0024 40.2035 38.0049L46.1685 38.9515C46.2396 38.9638 46.2984 39.003 46.3352 39.0644C46.5804 39.4886 46.7446 39.9521 46.828 40.4377C46.8672 40.6535 46.8844 40.8816 46.8844 41.1195C46.8844 43.388 45.0382 45.2347 42.7679 45.2371Z" fill="#FDFDFD"/>
<path d="M58.65 33.0342C58.167 27.5751 55.6662 22.5108 51.6086 18.7757C47.5265 15.0186 42.2308 12.9487 36.6924 12.9487C24.5368 12.9487 14.6465 22.8419 14.6465 35.0011C14.6465 39.0819 15.7719 43.0573 17.9024 46.5202L13.151 57.0411L28.3639 55.4201C31.0093 56.5041 33.8092 57.0534 36.6899 57.0534C37.4475 57.0534 38.2247 57.0142 39.0044 56.9332C39.6908 56.8597 40.3847 56.7518 41.0663 56.6144C51.2458 54.5568 58.6769 45.5196 58.7358 35.1188V35.0011C58.7358 34.3389 58.7064 33.6768 58.6475 33.0342H58.65ZM28.9499 50.8021L20.5331 51.6997L23.0461 46.1302L22.5435 45.4558C22.5067 45.4068 22.47 45.3577 22.4283 45.3013C20.2463 42.2873 19.0939 38.7263 19.0939 35.0035C19.0939 25.2968 26.9885 17.3999 36.6924 17.3999C45.7833 17.3999 53.4891 24.4948 54.232 33.5517C54.2712 34.0373 54.2933 34.5253 54.2933 35.006C54.2933 35.1433 54.2908 35.2782 54.2884 35.4229C54.102 43.5429 48.4312 50.4392 40.4974 52.1951C39.8919 52.33 39.2716 52.433 38.6537 52.4992C38.0114 52.5728 37.3519 52.6096 36.6973 52.6096C34.3657 52.6096 32.1003 52.1583 29.96 51.2657C29.7221 51.17 29.4892 51.067 29.271 50.9616L28.9523 50.807L28.9499 50.8021Z" fill="#FDFDFD"/>
</svg>
