<svg width="70" height="70" viewBox="0 0 70 70" fill="none" xmlns="http://www.w3.org/2000/svg">
<path d="M69.9794 35C69.9794 15.67 54.314 0 34.9897 0C15.6654 0 0 15.67 0 35C0 54.33 15.6654 70 34.9897 70C54.314 70 69.9794 54.33 69.9794 35Z" fill="#FF0209"/>
<path d="M49.8429 50.502C48.8004 50.6151 47.7333 50.6348 46.7105 50.6324C38.7321 50.625 30.7536 50.6176 22.7776 50.6127C20.2672 50.6127 17.5332 50.5315 15.5933 48.9354C13.4075 47.1326 12.9526 44.0067 12.7756 41.1784C12.5297 37.3023 12.5101 33.414 12.7117 29.5355C12.8223 27.4056 13.0165 25.2241 13.9336 23.2959C14.5926 21.9113 15.6916 20.6668 17.098 20.0126C18.733 19.2526 20.4443 19.3879 22.2047 19.3854C26.4189 19.3805 30.6331 19.3781 34.8473 19.3731C39.2287 19.3682 43.6126 19.3658 47.994 19.3608C50.0642 19.3608 52.2869 19.4027 53.976 20.6004C56.1568 22.1449 56.7494 25.0839 57.0223 27.7425C57.5263 32.6392 57.5337 37.5876 57.042 42.4843C56.8379 44.5035 56.4986 46.6383 55.1684 48.1705C53.8506 49.6904 51.8959 50.2757 49.8454 50.4996L49.8429 50.502Z" fill="white"/>
<path d="M42.1248 35L30.2346 28.1333V41.8667L42.1248 35Z" fill="#FF0209"/>
</svg>
