<svg width="1893" height="1562" viewBox="0 0 1893 1562" fill="none" xmlns="http://www.w3.org/2000/svg">
<path opacity="0.2" d="M1710.5 377.064C1767.5 467.417 1865.5 459.474 1849.5 584.081C1833.5 708.688 1644 659.044 1626 754.361C1608 849.678 1902.39 839.749 1859.5 974.285C1816.61 1108.82 1586.5 966.342 1554.5 1130.66M1517.5 327.419C1359.5 301.108 1206 417.275 1095.5 427.204M809.5 427.204C809.5 427.204 335 427.204 297 275.293C253.369 100.871 150 229.124 114 137.282C62.398 5.63881 -69.9503 94.3398 -44 1.25696M1577.5 1282.08C1577.5 1282.08 1593 1349.1 1669 1343.14M1822.5 1330.23C1822.5 1330.23 1910.37 1310.38 1888 1413.14C1865.63 1515.9 1726 1357.04 1697.5 1469.73C1669 1582.43 1360.5 1594.34 1348 1481.15M1348 1420.09C1348 1420.09 1356 1332.72 1288.5 1271.16C1221 1209.6 1102.5 1213.07 1102.5 1213.07M832 1213.07C832 1213.07 703 1271.16 597 1201.66C491 1132.15 315.5 1268.68 271.5 1164.92C227.5 1061.16 374.5 1038.33 355 986.696M306 842.727C274 820.884 268.999 684.362 193.5 684.362C118 684.362 131 812.444 27.9999 801.026C-75.0006 789.608 -58.5003 716.134 -58.5003 716.134" stroke="#010101" stroke-width="1.5" stroke-linecap="round" stroke-dasharray="3 3"/>
</svg>
